<?xml version="1.0" encoding="utf-8"?>
<!-- Generator: Adobe Illustrator 24.1.0, SVG Export Plug-In . SVG Version: 6.00 Build 0)  -->
<svg version="1.1" id="Capa_1" xmlns="http://www.w3.org/2000/svg" xmlns:xlink="http://www.w3.org/1999/xlink" x="0px" y="0px"
	 viewBox="0 0 512 512" style="enable-background:new 0 0 512 512;" xml:space="preserve">
<style type="text/css">
	.st0{fill:#FFFFFF;}
</style>
<path class="st0" d="M512,186v-30h-71V71h-85V0h-30v71h-55V0h-30v71h-55V0h-30v71H71v85H0v30h71v55H0v30h71v55H0v30h71v85h85v71h30
	v-71h55v71h30v-71h55v71h30v-71h85v-85h71v-30h-71v-55h71v-30h-71v-55H512z M360,300.7L300.7,360H152V211.3l59.3-59.3H360V300.7z"/>
</svg>
